<?xml version="1.0" encoding="utf-8"?>
<!-- Generator: Adobe Illustrator 20.1.0, SVG Export Plug-In . SVG Version: 6.00 Build 0)  -->
<svg version="1.1" id="Layer_1" xmlns="http://www.w3.org/2000/svg" xmlns:xlink="http://www.w3.org/1999/xlink" x="0px" y="0px"
	 viewBox="0 0 450 347" style="enable-background:new 0 0 450 347;" xml:space="preserve">
<style type="text/css">
	.st0{display:none;}
	.st1{display:inline;}
	.st2{fill:#004F44;}
	.st3{fill:#00887A;}
	.st4{fill:#FFCCBC;}
	.st5{fill:#7C7C83;}
	.st6{fill:#E2E2E2;}
	.st7{fill:#AFAFAF;}
	.st8{fill:#D3E3FC;}
	.st9{fill:#77A6F7;}
	.st10{fill:#5173A5;}
</style>
<g id="Layer_2" class="st0">
	<g id="Layer_1_1_" class="st1">
	</g>
</g>
<title>Messages Image(2209656927)</title>
<polygon class="st2" points="185.3,221.8 264.3,221.8 264.3,205.6 186.1,203.1 "/>
<path class="st3" d="M168.4,162.5c-6.8-138.2,124-138.5,111.2,0H168.4z"/>
<path class="st4" d="M186.7,162.5l0.2-45.4c0,0,2.6-28.3,25.2-26.5s9.6,5.9,23,6.5s28.7,5.2,28.7,20.9s0.2,44.5,0.2,44.5H186.7z"/>
<circle class="st2" cx="202.7" cy="134" r="7.5"/>
<circle class="st2" cx="248.1" cy="134" r="7.5"/>
<path class="st5" d="M179.3,94.5c21.3-6.8,64.7-12,91-2.9l-3.1-6c0,0-41.8-12.2-82.8-0.5L179.3,94.5z"/>
<circle class="st6" cx="220.8" cy="81.9" r="19.9"/>
<circle class="st7" cx="220.8" cy="81.9" r="5.4"/>
<polygon class="st3" points="170.9,192 183.2,269.4 186.1,203.1 "/>
<polygon class="st3" points="264.3,205.6 264.3,262.5 278.5,195.6 "/>
<path class="st8" d="M160.1,219.1h127.6c0,0,13.9,0.8,14.5,4.6s7,58.3,5,65.8s-0.3,8.6-9,11.8s-49.8,15.6-49.8,15.6l-41.9,1
	c0,0-52.3-13.8-58.4-18.1s-6.4-7.2-6-17.8s3.6-52.6,4.4-56.5S153.4,219.1,160.1,219.1z"/>
<polygon class="st9" points="204.9,247.4 216.1,317.6 233.4,317.2 243.9,246.5 232.5,234.8 217.2,234.4 "/>
<polygon class="st10" points="185.3,232.3 204.9,247.4 217.2,234.4 232.5,234.8 243.9,246.5 264.3,233.1 264.3,219.1 185.3,219.1 
	"/>
<path class="st4" d="M196.8,208.7v15.1c12.5,11.5,34.2,21.4,56.4,0l0.9-13.5L196.8,208.7z"/>
<path class="st8" d="M168.4,162.5h111.2l-1.1,33.2c0,0-48.6,46.7-107.6-3.6L168.4,162.5z"/>
<g>
	<path class="st2" d="M193.1,120.4c0,0,0.2-0.3,0.7-0.7c0.5-0.4,1.1-1,2-1.5c0.4-0.3,0.9-0.6,1.4-0.8c0.5-0.2,1.1-0.5,1.7-0.7
		c0.6-0.2,1.2-0.4,1.9-0.5c0.6-0.2,1.3-0.2,2-0.3c0.7,0,1.4-0.1,2.1,0c0.7,0,1.4,0.1,2.1,0.3c0.7,0.1,1.3,0.3,1.9,0.6
		c0.6,0.3,1.2,0.6,1.7,1c0.2,0.2,0.5,0.4,0.7,0.6s0.4,0.4,0.5,0.6c0.3,0.4,0.5,0.8,0.6,1.2c0.1,0.3,0.1,0.6,0.1,0.8
		c0,0.2,0,0.3,0,0.3v0.1c0,0.1-0.1,0.1-0.2,0.1c0,0-0.1,0-0.1-0.1c0,0,0-0.1-0.1-0.2s-0.2-0.3-0.4-0.5s-0.4-0.4-0.7-0.6
		s-0.7-0.4-1.1-0.6c-1.7-0.7-4.3-0.8-6.8-0.5c-2.5,0.2-5,0.7-6.8,1.1s-3.1,0.8-3.1,0.8c-0.1,0-0.1,0-0.2-0.1
		C193,120.5,193,120.5,193.1,120.4L193.1,120.4z"/>
</g>
<g>
	<path class="st2" d="M257.7,122c0,0-1.2-0.3-3.1-0.8c-1.8-0.4-4.3-0.9-6.8-1.1c-2.5-0.3-5-0.2-6.8,0.5c-0.4,0.2-0.8,0.4-1.1,0.6
		s-0.6,0.4-0.7,0.6c-0.2,0.2-0.3,0.4-0.4,0.5c-0.1,0.1-0.1,0.2-0.1,0.2c0,0.1-0.1,0.1-0.2,0l-0.1-0.1v-0.1c0,0,0-0.1,0-0.3
		c0-0.2,0-0.5,0.1-0.8s0.3-0.7,0.6-1.2c0.2-0.2,0.3-0.4,0.5-0.6s0.4-0.4,0.7-0.6c0.5-0.4,1-0.7,1.7-1c0.6-0.3,1.3-0.5,1.9-0.6
		c0.7-0.2,1.4-0.2,2.1-0.3c0.7,0,1.4,0,2.1,0c0.7,0.1,1.4,0.2,2,0.3c0.7,0.1,1.3,0.3,1.9,0.5c0.6,0.2,1.2,0.4,1.7,0.7
		c0.5,0.2,1,0.5,1.4,0.8c0.9,0.5,1.6,1.1,2,1.5c0.5,0.4,0.7,0.7,0.7,0.7l0.1,0.1c0,0.1,0,0.1,0,0.2C257.7,122,257.7,122.1,257.7,122
		z"/>
</g>
</svg>
